<?xml version="1.0" encoding="UTF-8"?><svg xmlns="http://www.w3.org/2000/svg" viewBox="0 0 1080 1188.98"><defs><style>.d{fill:#f79d5c;}.e{fill:#fff;}.f{fill:#ffece4;}.g{fill:#b32e55;}.h{fill:#10674c;}</style></defs><g id="a"/><g id="b"><g id="c"><g><rect class="f" y="46.61" width="1080" height="1080"/><g><g><path class="h" d="M1070.15,12.88c-25.03,53.66-33.54,102.24-40.5,137.1,0,0-9.77,2.15-8.98-1.65,9.51-45.6,16.97-98.46,44.62-148.33,0,0,2.28,9.58,4.86,12.88Z"/><path class="h" d="M1040.38,77.21c-3.56,3.59-25.77,33.01-82.04,70.85l-4.29-6.32c36.67-24.32,60.89-48.02,90.93-86.59,0,0-4.86,17.88-4.6,22.07Z"/><path class="h" d="M1031.52,76.38c-33.64,37.18-69.66,9.18-69.66,9.18,0,0,41.04-42.48,73.99-14.21"/><g><path class="h" d="M1039.53,90.68c28.62,8.42,22.37,46.07,22.37,46.07,0,0-21.18-4.76-24.69-32.02l-.34-2.62"/><path class="f" d="M1038.24,97.67c3.5,1.92,6.29,4.89,8.75,8,2.55,3.08,4.49,6.68,5.15,10.67l-.16,.07c-.64-.79-1.17-1.62-1.69-2.45-2.69-4.02-4.62-8.52-7.92-12.12-1.26-1.47-2.64-2.87-4.21-4.01l.09-.15h0Z"/></g><path class="f" d="M1030.55,73.29c.4,0,1.5,0,1.9,.02,.11,.02,.18-.03,.32,.11,.06,.17-.08,.24-.05,.22-.27,.13-2.67,.27-3.02,.32-11.68,.88-23.31,2.46-34.87,4.28l-.06-.17c9.29-4.39,19.84-4.01,29.86-4.55,1.84-.04,6.07-.08,7.86-.15h.06s-.02,0-.03,.01c.03-.03-.1,.04-.04,.21,.1,.1,.07,.05,.07,.06-.46-.08-1.54-.13-2.01-.17v-.18h0Z"/><path class="h" d="M1005.62,110.46c10.96,21.03-20.1,36.11-20.1,36.11,0,0-8.35-21.17,8.49-29.93,4.07-2.61,7.94-4.69,11.61-6.18Z"/><path class="f" d="M1002.07,113.83c-.48,3.57-1.46,7.05-2.74,10.42-1.15,3.45-2.96,6.73-5.84,9.05l-.14-.1c1.28-3.4,3-6.35,4.69-9.51,1.56-3.17,2.86-6.49,3.86-9.88l.17,.03h0Z"/></g><g><path class="g" d="M905.84,118.14c-7.06,5.66-10.14,16.16-2.55,26.11-11.62,4.66-14.36,15.31-11.18,23.73,3.2,8.48,12.27,14.6,24.07,10.42,.9,12.55,10.15,18.4,19.19,17.98,8.98-.39,17.65-7.15,17.3-19.7,12.17,3.07,20.62-3.88,23.04-12.6,2.36-8.69-1.32-19.01-13.41-22.6,6.72-10.62,2.67-20.79-4.84-25.76-7.58-4.94-18.52-4.58-25.64,5.71-8.01-9.59-18.98-8.93-25.98-3.3Z"/><g><circle class="e" cx="933.73" cy="152.46" r="3.41"/><g><rect class="e" x="924.5" y="146.44" width="1.04" height="18.61" transform="translate(1105.89 1076.19) rotate(-110.67)"/><circle class="e" cx="916.31" cy="159.03" r="2.11"/></g><g><rect class="e" x="928.09" y="150.93" width="1.04" height="18.61" transform="translate(1616.5 804.3) rotate(-146.67)"/><circle class="e" cx="923.5" cy="168.01" r="2.11"/></g><g><rect class="e" x="933.64" y="152.45" width="1.04" height="18.61" transform="translate(1874.85 279.75) rotate(177.33)"/><circle class="e" cx="934.6" cy="171.05" r="2.11"/></g><g><rect class="e" x="939.02" y="150.42" width="1.04" height="18.61" transform="translate(1772.86 -302.69) rotate(141.33)"/><circle class="e" cx="945.36" cy="166.99" r="2.11"/></g><g><rect class="e" x="942.18" y="145.62" width="1.04" height="18.61" transform="translate(1341.27 -713.31) rotate(105.33)"/><circle class="e" cx="951.68" cy="157.38" r="2.11"/></g><g><rect class="e" x="941.91" y="139.87" width="1.04" height="18.61" transform="translate(749.27 -785.23) rotate(69.33)"/><circle class="e" cx="951.14" cy="145.89" r="2.11"/></g><g><rect class="e" x="938.32" y="135.38" width="1.04" height="18.61" transform="translate(233.87 -492) rotate(33.33)"/><circle class="e" cx="943.95" cy="136.91" r="2.11"/></g><g><rect class="e" x="932.77" y="133.86" width="1.04" height="18.61" transform="translate(-5.66 43.71) rotate(-2.67)"/><circle class="e" cx="932.86" cy="133.87" r="2.11"/></g><g><rect class="e" x="927.39" y="135.89" width="1.04" height="18.61" transform="translate(112.75 611.69) rotate(-38.67)"/><circle class="e" cx="922.1" cy="137.93" r="2.11"/></g><g><rect class="e" x="924.23" y="140.7" width="1.04" height="18.61" transform="translate(535.67 1002.22) rotate(-74.67)"/><circle class="e" cx="915.78" cy="147.54" r="2.11"/></g></g></g><g><path class="d" d="M987.94,183.41c1.78,7.18,8.52,13.07,18.51,10.85-.53,10.23,6.44,15.91,13.78,16.44,7.39,.53,15.05-4.1,16-14.29,9.63,3.64,17.14-1.22,19.93-8.07,2.79-6.8,.75-15.56-8.69-19.61,6.46-7.98,4.2-16.64-1.44-21.43-5.64-4.74-14.57-5.54-21.38,2.2-5.58-8.64-14.52-9.12-20.79-5.24-6.27,3.93-9.75,12.18-4.56,21-9.87,2.66-13.15,11.02-11.36,18.16Z"/><g><circle class="e" cx="1023" cy="174.48" r="2.79"/><g><rect class="e" x="1022.02" y="174.46" width=".85" height="15.22" transform="translate(2029.12 437.36) rotate(-175.87)"/><circle class="e" cx="1021.9" cy="189.67" r="1.73"/></g><g><rect class="e" x="1026.59" y="173.34" width=".85" height="15.22" transform="translate(1994.76 -207.6) rotate(148.13)"/><circle class="e" cx="1031.03" cy="187.41" r="1.73"/></g><g><rect class="e" x="1029.62" y="169.74" width=".85" height="15.22" transform="translate(1582.4 -709.98) rotate(112.13)"/><circle class="e" cx="1037.1" cy="180.22" r="1.73"/></g><g><rect class="e" x="1029.96" y="165.05" width=".85" height="15.22" transform="translate(951.06 -869.08) rotate(76.13)"/><circle class="e" cx="1037.78" cy="170.83" r="1.73"/></g><g><rect class="e" x="1027.48" y="161.05" width=".85" height="15.22" transform="translate(350.73 -622.84) rotate(40.13)"/><circle class="e" cx="1032.81" cy="162.84" r="1.73"/></g><g><rect class="e" x="1023.12" y="159.28" width=".85" height="15.22" transform="translate(14.69 -73.33) rotate(4.13)"/><circle class="e" cx="1024.09" cy="159.3" r="1.73"/></g><g><rect class="e" x="1018.55" y="160.41" width=".85" height="15.22" transform="translate(64.88 563.3) rotate(-31.87)"/><circle class="e" cx="1014.96" cy="161.55" r="1.73"/></g><g><rect class="e" x="1015.52" y="164" width=".85" height="15.22" transform="translate(474.22 1048.04) rotate(-67.87)"/><circle class="e" cx="1008.9" cy="168.75" r="1.73"/></g><g><rect class="e" x="1015.18" y="168.69" width=".85" height="15.22" transform="translate(1087.85 1204.57) rotate(-103.87)"/><circle class="e" cx="1008.22" cy="178.13" r="1.73"/></g><g><rect class="e" x="1017.66" y="172.69" width=".85" height="15.22" transform="translate(1680.26 974.37) rotate(-139.87)"/><circle class="e" cx="1013.18" cy="186.12" r="1.73"/></g></g></g></g><g><g><path class="h" d="M956.32,993.55c-.67,5.44-5.09,10.37-12.64,9.63,1.3,7.47-3.31,12.28-8.66,13.32-5.39,1.05-11.43-1.67-13.04-9.08-6.75,3.53-12.71,.63-15.38-4.16-2.66-4.75-1.94-11.37,4.63-15.19-5.46-5.29-4.57-11.86-.85-15.89,3.73-3.99,10.21-5.38,15.91-.29,3.33-6.85,9.86-8,14.81-5.71,4.96,2.33,8.26,8.08,5.23,15.03,7.49,1.07,10.65,6.93,9.97,12.33Z"/><g><circle class="e" cx="929.76" cy="990.13" r="2.07"/><g><rect class="e" x="930.52" y="990.02" width=".63" height="11.27" transform="translate(-173.74 197.1) rotate(-11.06)"/><circle class="e" cx="931.92" cy="1001.19" r="1.28"/></g><g><rect class="e" x="927.06" y="989.6" width=".63" height="11.27" transform="translate(506.1 -298.23) rotate(24.94)"/><circle class="e" cx="925" cy="1000.35" r="1.28"/></g><g><rect class="e" x="924.51" y="987.23" width=".63" height="11.27" transform="translate(1343.45 -297.81) rotate(60.94)"/><circle class="e" cx="919.9" cy="995.6" r="1.28"/></g><g><rect class="e" x="923.84" y="983.81" width=".63" height="11.27" transform="translate(2018 191.57) rotate(96.94)"/><circle class="e" cx="918.57" cy="988.76" r="1.28"/></g><g><rect class="e" x="925.31" y="980.65" width=".63" height="11.27" transform="translate(2278.23 980.51) rotate(132.94)"/><circle class="e" cx="921.5" cy="982.45" r="1.28"/></g><g><rect class="e" x="928.36" y="978.96" width=".63" height="11.27" transform="translate(2029.01 1772.71) rotate(168.94)"/><circle class="e" cx="927.59" cy="979.06" r="1.28"/></g><g><rect class="e" x="931.82" y="979.38" width=".63" height="11.27" transform="translate(1362.04 2271.21) rotate(-155.06)"/><circle class="e" cx="934.51" cy="979.9" r="1.28"/></g><g><rect class="e" x="934.37" y="981.75" width=".63" height="11.27" transform="translate(525.64 2284.02) rotate(-119.06)"/><circle class="e" cx="939.61" cy="984.65" r="1.28"/></g><g><rect class="e" x="935.04" y="985.17" width=".63" height="11.27" transform="translate(-161.19 1799.62) rotate(-83.06)"/><circle class="e" cx="940.95" cy="991.49" r="1.28"/></g><g><rect class="e" x="933.57" y="988.33" width=".63" height="11.27" transform="translate(-429.96 1000.55) rotate(-47.06)"/><circle class="e" cx="938.01" cy="997.8" r="1.28"/></g></g></g><g><path class="h" d="M926.74,1188.98c2.47-41.74,2.55-129.75,44.29-203.68,13.6-24.08,21.26-45.37,25.26-65.16,6.21-30.69,14.83-24.93,9.49,2.68-3.95,20.42-11.58,40.27-23.75,61.81-31.45,55.67-44.01,154.46-43.08,203.33l-12.21,1.01Z"/><path class="h" d="M950.7,1032.59c-.43-6.19-7.69-26.12-12.39-34.61l5.72-.78s11.81,18.71,12.3,25.71l-5.63,9.68Z"/><path class="h" d="M938.13,1083.51s20.11-12.71,38.71-17.79l-2.75,9.23s-34.36,18.02-36.04,22.44l.08-13.88Z"/></g><g><path class="d" d="M1028.04,1105.78c-9.15,2.97-20.27-.42-24.69-12.97-10.92,7.6-21.98,3.83-27.61-3.9-5.67-7.79-5.82-19.42,4.77-27.47-10.62-8.12-10.43-19.75-4.79-27.54,5.59-7.75,16.64-11.51,27.59-3.89,4.37-12.6,15.47-16.06,24.64-13.13,9.1,2.97,16.12,12.26,12.26,25.09,13.36,.22,20.04,9.75,20.07,19.33-.03,9.62-6.73,19.13-20.03,19.46,3.85,12.71-3.13,22.07-12.22,25.01Z"/><g><circle class="e" cx="1013.8" cy="1060.98" r="3.63"/><g><rect class="e" x="1005.25" y="1056.91" width="1.11" height="19.78" transform="translate(1276.51 -374.18) rotate(53.95)"/><circle class="e" cx="997.8" cy="1072.62" r="2.25"/></g><g><rect class="e" x="1003.35" y="1051.1" width="1.11" height="19.78" transform="translate(2064.09 56.23) rotate(89.95)"/><circle class="e" cx="994.02" cy="1061" r="2.25"/></g><g><rect class="e" x="1005.24" y="1045.28" width="1.11" height="19.78" transform="translate(2450.48 860.52) rotate(125.95)"/><circle class="e" cx="997.78" cy="1049.37" r="2.25"/></g><g><rect class="e" x="1010.18" y="1041.69" width="1.11" height="19.78" transform="translate(2297.51 1738.32) rotate(161.95)"/><circle class="e" cx="1007.67" cy="1042.17" r="2.25"/></g><g><rect class="e" x="1016.29" y="1041.68" width="1.11" height="19.78" transform="translate(1660.03 2365.38) rotate(-162.05)"/><circle class="e" cx="1019.9" cy="1042.16" r="2.25"/></g><g><rect class="e" x="1021.24" y="1045.27" width="1.11" height="19.78" transform="translate(769.91 2502.22) rotate(-126.05)"/><circle class="e" cx="1029.79" cy="1049.34" r="2.25"/></g><g><rect class="e" x="1023.14" y="1051.08" width="1.11" height="19.78" transform="translate(-36.46 2085.52) rotate(-90.05)"/><circle class="e" cx="1033.58" cy="1060.97" r="2.25"/></g><g><rect class="e" x="1021.25" y="1056.9" width="1.11" height="19.78" transform="translate(-441.69 1267.58) rotate(-54.05)"/><circle class="e" cx="1029.81" cy="1072.6" r="2.25"/></g><g><rect class="e" x="1016.31" y="1060.5" width="1.11" height="19.78" transform="translate(-281.57 367.66) rotate(-18.05)"/><circle class="e" cx="1019.93" cy="1079.79" r="2.25"/></g><g><rect class="e" x="1010.19" y="1060.5" width="1.11" height="19.78" transform="translate(379.17 -259.44) rotate(17.95)"/><circle class="e" cx="1007.7" cy="1079.8" r="2.25"/></g></g></g><g><path class="h" d="M934.75,1101.76c-17.08,.26-34.18-12.11-39.59-55.03,0,0,47.81,16.71,42.53,40.57,0,0-.85,9.17-2.94,14.46Z"/><path class="f" d="M932.32,1089.48c-.3,.05-.37-.07-.55-.12-2.15-1.08-4.08-2.54-5.98-3.98-5.85-4.85-11.99-10.37-14-17.99l.16-.08c5.95,8.11,11.9,16.55,20.37,22.17h0Z"/></g><g><path class="h" d="M970.28,1004.67c18.49,5.73,54.65-3.97,65.74-33.77-23.7,4.2-51.63-2.07-64.05,28.01,0,0-1.55,3.34-1.69,5.75Z"/><path class="f" d="M975.13,999.58c14.06-4.98,27.76-10.81,41.72-16.06l.09,.15c-6.13,4.43-13.28,6.99-20.38,9.35-7.07,2.43-14.19,4.66-21.37,6.73l-.05-.17h0Z"/></g><g><path class="h" d="M979.17,972.58c-22.36,11.78-31.01-38.33-30.87-66.33,12.87,14.76,38.72,32.25,35.51,57.4l-4.65,8.93Z"/><path class="f" d="M976.79,965.09c-3.23-5.11-6.1-10.43-8.81-15.83-2.82-5.37-5.24-10.93-6.53-16.89l.16-.06c3.09,5.23,5.38,10.76,7.65,16.36,2.41,5.51,4.9,11,7.68,16.34l-.15,.09h0Z"/></g><g><path class="g" d="M1022.13,934.19c-8.63,2.33-18.8-1.34-22.31-13.2-10.5,6.54-20.59,2.51-25.44-4.93-4.89-7.5-4.48-18.3,5.73-25.28-9.48-8.04-8.75-18.83-3.14-25.79,5.55-6.93,16-9.9,25.8-2.3,4.65-11.49,15.13-14.18,23.49-11.03,8.31,3.19,14.39,12.15,10.2,23.88,12.39,.84,18.14,10,17.72,18.89-.48,8.93-7.15,17.44-19.51,17.12,2.97,11.98-3.95,20.35-12.53,22.64Z"/><g><circle class="e" cx="1011.03" cy="891.93" r="3.37"/><g><rect class="e" x="1002.81" y="887.76" width="1.03" height="18.39" transform="translate(1206.07 -433.49) rotate(56.87)"/><circle class="e" cx="995.63" cy="901.98" r="2.09"/></g><g><rect class="e" x="1001.33" y="882.27" width="1.03" height="18.39" transform="translate(1942.33 -64.51) rotate(92.87)"/><circle class="e" cx="992.66" cy="891.01" r="2.09"/></g><g><rect class="e" x="1003.35" y="876.96" width="1.03" height="18.39" transform="translate(2323.78 660.65) rotate(128.87)"/><circle class="e" cx="996.71" cy="880.39" r="2.09"/></g><g><rect class="e" x="1008.11" y="873.86" width="1.03" height="18.39" transform="translate(2212.79 1472.19) rotate(164.87)"/><circle class="e" cx="1006.23" cy="874.17" r="2.09"/></g><g><rect class="e" x="1013.79" y="874.14" width="1.03" height="18.39" transform="translate(1647.4 2070.04) rotate(-159.13)"/><circle class="e" cx="1017.58" cy="874.74" r="2.09"/></g><g><rect class="e" x="1018.21" y="877.71" width="1.03" height="18.39" transform="translate(832.82 2224.75) rotate(-123.13)"/><circle class="e" cx="1026.43" cy="881.88" r="2.09"/></g><g><rect class="e" x="1019.69" y="883.19" width="1.03" height="18.39" transform="translate(77.89 1866.66) rotate(-87.13)"/><circle class="e" cx="1029.39" cy="892.85" r="2.09"/></g><g><rect class="e" x="1017.67" y="888.5" width="1.03" height="18.39" transform="translate(-319.7 1127.11) rotate(-51.13)"/><circle class="e" cx="1025.35" cy="903.47" r="2.09"/></g><g><rect class="e" x="1012.91" y="891.61" width="1.03" height="18.39" transform="translate(-200.01 295.78) rotate(-15.13)"/><circle class="e" cx="1015.83" cy="909.68" r="2.09"/></g><g><rect class="e" x="1007.24" y="891.32" width="1.03" height="18.39" transform="translate(386.89 -299.91) rotate(20.87)"/><circle class="e" cx="1004.48" cy="909.11" r="2.09"/></g></g></g></g><g><g><path class="h" d="M263.03,79.83c-3.13-6.28-10.59-10.34-19.38-6.21-1.63-9.57-9.26-13.4-16.16-12.37-6.95,1.04-13.08,6.91-11.85,16.54-9.66-1.37-15.61,4.68-16.78,11.6-1.18,6.87,2.53,14.55,12.1,16.35-4.32,8.72-.44,16.27,5.77,19.54,6.21,3.22,14.63,2.11,19.34-6.46,6.95,6.84,15.33,5.44,20.33,.55,4.99-4.94,6.51-13.29-.12-20.38,8.58-4.5,9.89-12.93,6.76-19.16Z"/><g><circle class="e" cx="232.43" cy="95.35" r="2.65"/><g><rect class="e" x="230.96" y="80.98" width=".81" height="14.44" transform="translate(-10.47 35.05) rotate(-8.47)"/><circle class="e" cx="230.3" cy="81.06" r="1.64"/></g><g><rect class="e" x="226.97" y="82.97" width=".81" height="14.44" transform="translate(1.94 185.12) rotate(-44.47)"/><circle class="e" cx="222.31" cy="85.04" r="1.64"/></g><g><rect class="e" x="224.9" y="86.93" width=".81" height="14.44" transform="translate(95.16 300.77) rotate(-80.47)"/><circle class="e" cx="218.19" cy="92.96" r="1.64"/></g><g><rect class="e" x="225.56" y="91.34" width=".81" height="14.44" transform="translate(238.47 344.77) rotate(-116.47)"/><circle class="e" cx="219.5" cy="101.78" r="1.64"/></g><g><rect class="e" x="228.69" y="94.53" width=".81" height="14.44" transform="translate(385.22 297.86) rotate(-152.47)"/><circle class="e" cx="225.76" cy="108.15" r="1.64"/></g><g><rect class="e" x="233.09" y="95.27" width=".81" height="14.44" transform="translate(479.54 169.45) rotate(171.53)"/><circle class="e" cx="234.56" cy="109.63" r="1.64"/></g><g><rect class="e" x="237.08" y="93.28" width=".81" height="14.44" transform="translate(477.36 5.84) rotate(135.53)"/><circle class="e" cx="242.54" cy="105.65" r="1.64"/></g><g><rect class="e" x="239.14" y="89.32" width=".81" height="14.44" transform="translate(374.41 -123.72) rotate(99.53)"/><circle class="e" cx="246.67" cy="97.74" r="1.64"/></g><g><rect class="e" x="238.49" y="84.91" width=".81" height="14.44" transform="translate(214.87 -162.78) rotate(63.53)"/><circle class="e" cx="245.35" cy="88.91" r="1.64"/></g><g><rect class="e" x="235.36" y="81.72" width=".81" height="14.44" transform="translate(67.8 -98.9) rotate(27.53)"/><circle class="e" cx="239.1" cy="82.54" r="1.64"/></g></g></g><path class="h" d="M161.75,42.46s30.98,22.68,56.96,34.33l-2.78,7.36s-30.04-11.48-64.47-39"/><g><path class="h" d="M165.76,53.98s-20.26,30.54,6.51,67.55c0,0,25.95-42.85,11.51-60.35,0,0-10.29-11.5-18.02-7.2Z"/><path class="f" d="M175.34,60.83c-1.43,10.33-1.77,20.68-2.04,31.09l-.17,.03c-1.86-5.04-1.43-10.51-.7-15.69,.64-5.2,1.57-10.36,2.74-15.46l.17,.03h0Z"/></g></g><g><path class="h" d="M195.1,1132.68c-.44,.62-33.43-28.21-53.89-55.17-.92-1.21,1.93-25.75,1.93-25.75-.28-.42-4.85-5.4-4.85-5.4-2.06,.59-4.19,22.02-4.74,21.21-7.34-10.7-29.77-55.14-34.47-65.61l-10.44-2.25c3.53,10.64,20.98,47.98,28.54,60.5,0,0-6.33,1.44-18.84-3.51l5.5,9.32s5.96,1.29,16.97,2.31c13.25,21.79,32.89,46.29,55.22,66.42,0,0,19.17-1.13,19.07-2.06Z"/><path class="h" d="M150.87,1106.29c-25.67,24.86-65.38-1.21-65.38-1.21,0,0,32.24-28.29,56.17-11.02,7.39,5.23,4.05,6.91,9.21,12.23Z"/><path class="f" d="M142.69,1101.81c-5.47,2.18-11.4,2.93-17.26,3.24-5.89,.39-11.86-.18-17.41-2.3l.04-.2c1.49-.05,2.94,.03,4.39,.1,4.34,.1,8.63,.6,12.96,.79,5.76,.09,11.62-.25,17.2-1.81l.07,.19h0Z"/><g><path class="d" d="M136.44,945.52c-2.38-10.83-12.24-19.92-27.3-17,1.2-15.3-9.01-24.1-19.98-25.19-11.05-1.1-22.71,5.54-24.54,20.77-14.28-5.83-25.73,1.14-30.18,11.3-4.45,10.08-1.75,23.27,12.23,29.72-9.99,11.69-6.95,24.76,1.31,32.16,8.27,7.32,21.6,8.89,32.12-2.44,8.01,13.16,21.39,14.25,30.93,8.69,9.55-5.64,15.1-17.85,7.68-31.27,14.89-3.58,20.13-15.99,17.75-26.74Z"/><g><circle class="e" cx="83.57" cy="957.48" r="4.18"/><g><rect class="e" x="84.06" y="934.73" width="1.28" height="22.81" transform="translate(93.79 -3.74) rotate(5.66)"/><circle class="e" cx="85.82" cy="934.78" r="2.59"/></g><g><rect class="e" x="77.17" y="936.23" width="1.28" height="22.81" transform="translate(-467.97 169.05) rotate(-30.34)"/><circle class="e" cx="72.05" cy="937.8" r="2.59"/></g><g><rect class="e" x="72.48" y="941.5" width="1.28" height="22.81" transform="translate(-829.01 637.41) rotate(-66.34)"/><circle class="e" cx="62.68" cy="948.33" r="2.59"/></g><g><rect class="e" x="71.79" y="948.52" width="1.28" height="22.81" transform="translate(-849.86 1235.76) rotate(-102.34)"/><circle class="e" cx="61.29" cy="962.36" r="2.59"/></g><g><rect class="e" x="75.35" y="954.6" width="1.28" height="22.81" transform="translate(-509.41 1738.18) rotate(-138.34)"/><circle class="e" cx="68.41" cy="974.53" r="2.59"/></g><g><rect class="e" x="81.81" y="957.43" width="1.28" height="22.81" transform="translate(68.87 1941.08) rotate(-174.34)"/><circle class="e" cx="81.32" cy="980.19" r="2.59"/></g><g><rect class="e" x="88.69" y="955.92" width="1.28" height="22.81" transform="translate(655 1757.09) rotate(149.66)"/><circle class="e" cx="95.09" cy="977.17" r="2.59"/></g><g><rect class="e" x="93.38" y="950.66" width="1.28" height="22.81" transform="translate(1012.92 1262.09) rotate(113.66)"/><circle class="e" cx="104.47" cy="966.64" r="2.59"/></g><g><rect class="e" x="94.07" y="943.64" width="1.28" height="22.81" transform="translate(1007.48 658.48) rotate(77.66)"/><circle class="e" cx="105.86" cy="952.61" r="2.59"/></g><g><rect class="e" x="90.51" y="937.56" width="1.28" height="22.81" transform="translate(653.89 179.44) rotate(41.66)"/><circle class="e" cx="98.74" cy="940.44" r="2.59"/></g></g></g><g><path class="g" d="M91.34,1027.21c-6.79-5.29-17.18-5.83-24.72,3.39-6.87-9.72-17.33-9.92-24.41-5.13-7.14,4.82-10.81,14.56-4.35,24.56-11.41,3.6-14.79,13.44-12.42,21.71,2.34,8.22,10.49,14.76,22.03,11.68-.17,11.93,8.13,18.23,16.73,18.55,8.56,.27,17.3-5.4,17.96-17.38,11.3,3.88,19.83-2.1,22.77-10.15,2.91-8.1,.16-18.14-10.92-22.47,7.11-9.52,4.09-19.53-2.66-24.76Z"/><g><circle class="e" cx="65.71" cy="1060.56" r="3.24"/><g><rect class="e" x="60.26" y="1044.37" width=".99" height="17.7" transform="translate(-579.25 214.56) rotate(-34.05)"/><circle class="e" cx="55.8" cy="1045.89" r="2.01"/></g><g><rect class="e" x="56.9" y="1048.69" width=".99" height="17.7" transform="translate(-956.25 750.6) rotate(-70.05)"/><circle class="e" cx="49.07" cy="1054.52" r="2.01"/></g><g><rect class="e" x="56.71" y="1054.15" width=".99" height="17.7" transform="translate(-948.57 1411.82) rotate(-106.05)"/><circle class="e" cx="48.7" cy="1065.45" r="2.01"/></g><g><rect class="e" x="59.77" y="1058.69" width=".99" height="17.7" transform="translate(-548.76 1946.37) rotate(-142.05)"/><circle class="e" cx="54.83" cy="1074.52" r="2.01"/></g><g><rect class="e" x="64.92" y="1060.55" width=".99" height="17.7" transform="translate(94.33 2140.41) rotate(-178.05)"/><circle class="e" cx="65.11" cy="1078.25" r="2.01"/></g><g><rect class="e" x="70.17" y="1059.04" width=".99" height="17.7" transform="translate(727.1 1913.16) rotate(145.95)"/><circle class="e" cx="75.62" cy="1075.22" r="2.01"/></g><g><rect class="e" x="73.54" y="1054.73" width=".99" height="17.7" transform="translate(1099.03 1356.94) rotate(109.95)"/><circle class="e" cx="82.35" cy="1066.6" r="2.01"/></g><g><rect class="e" x="73.72" y="1049.26" width=".99" height="17.7" transform="translate(1070.59 694.3) rotate(73.95)"/><circle class="e" cx="82.73" cy="1055.66" r="2.01"/></g><g><rect class="e" x="70.66" y="1044.73" width=".99" height="17.7" transform="translate(663.02 179.06) rotate(37.95)"/><circle class="e" cx="76.6" cy="1046.6" r="2.01"/></g><g><rect class="e" x="65.52" y="1042.86" width=".99" height="17.7" transform="translate(35.89 -1.64) rotate(1.95)"/><circle class="e" cx="66.32" cy="1042.87" r="2.01"/></g></g></g><g><path class="h" d="M178.21,1043.65c3.5-5.51,3.15-13.39-4.35-18.41,6.84-5.89,6.23-13.79,2.1-18.8-4.16-5.04-11.77-7.1-18.85-1.5-3.54-8.35-11.21-10.19-17.28-7.8-6.04,2.36-10.38,8.99-7.22,17.47-9.02,.74-13.17,7.45-12.79,13.97,.41,6.48,5.33,12.66,14.41,12.3-2.11,8.81,3.02,14.81,9.31,16.45,6.32,1.61,13.7-1.19,16.17-9.87,7.7,4.68,15.03,1.67,18.49-3.81Z"/><g><circle class="e" cx="151.18" cy="1026.73" r="2.46"/><g><rect class="e" x="155.98" y="1015.75" width=".75" height="13.42" transform="translate(845.44 251.08) rotate(50.47)"/><circle class="e" cx="161.53" cy="1018.19" r="1.52"/></g><g><rect class="e" x="152.48" y="1013.52" width=".75" height="13.42" transform="translate(259.77 -5.83) rotate(14.47)"/><circle class="e" cx="154.53" cy="1013.73" r="1.52"/></g><g><rect class="e" x="148.34" y="1013.78" width=".75" height="13.42" transform="translate(-364.14 125.79) rotate(-21.53)"/><circle class="e" cx="146.25" cy="1014.24" r="1.52"/></g><g><rect class="e" x="145.14" y="1016.42" width=".75" height="13.42" transform="translate(-795.79 596.63) rotate(-57.53)"/><circle class="e" cx="139.86" cy="1019.52" r="1.52"/></g><g><rect class="e" x="144.11" y="1020.43" width=".75" height="13.42" transform="translate(-871.81 1234.6) rotate(-93.53)"/><circle class="e" cx="137.79" cy="1027.55" r="1.52"/></g><g><rect class="e" x="145.63" y="1024.29" width=".75" height="13.42" transform="translate(-556.26 1799.83) rotate(-129.53)"/><circle class="e" cx="140.83" cy="1035.27" r="1.52"/></g><g><rect class="e" x="149.13" y="1026.52" width=".75" height="13.42" transform="translate(36.1 2071.03) rotate(-165.53)"/><circle class="e" cx="147.83" cy="1039.72" r="1.52"/></g><g><rect class="e" x="153.27" y="1026.26" width=".75" height="13.42" transform="translate(675.66 1937.48) rotate(158.47)"/><circle class="e" cx="156.11" cy="1039.21" r="1.52"/></g><g><rect class="e" x="156.47" y="1023.62" width=".75" height="13.42" transform="translate(1110.31 1451.14) rotate(122.47)"/><circle class="e" cx="162.5" cy="1033.93" r="1.52"/></g><g><rect class="e" x="157.5" y="1019.61" width=".75" height="13.42" transform="translate(1172.52 805.54) rotate(86.47)"/><circle class="e" cx="164.57" cy="1025.9" r="1.52"/></g></g></g></g><g><path class="h" d="M44.26,35.8c9.68,28.48,29.82,118.44,26.44,153.14,0,0,6.63,3.48,7.76-.07,2.8-8.81,2.11-43.81-9.14-93.6-.19-.86,29.86,5.91,39.12,5.44,0,0,8.2-9.68,6.71-9.41-10.21,1.82-46.15-2.79-49.11-10.55-5.68-14.86-5.43-29.14-12.08-49.23,0,0-6.28,.98-9.7,4.28Z"/><g><path class="h" d="M64.13,108.73c-43.55,9.93-27.31,72.88-27.31,72.88,0,0,40.57-13.85,32.6-48.68-1.21-9.03-2.96-17.12-5.29-24.2Z"/><path class="f" d="M66.1,116.89c-7.99,10.86-12.6,23.49-17.42,35.95l-.17-.04c.64-6.78,3.08-13.24,6.34-19.17,3.12-5.99,6.8-11.69,11.11-16.86l.14,.11h0Z"/></g><g><path class="h" d="M77.95,149.44c.98,34.08,47.66,42.06,47.66,42.06,0,0,.7-53.76-48.32-49.55"/><path class="f" d="M77.69,145.51c5.79,3.7,11.25,7.87,16.42,12.4,5.26,4.43,10.08,9.55,13.33,15.67l-.14,.1c-4.79-4.93-9.32-9.88-14.15-14.73-4.91-4.73-10.09-9.2-15.56-13.29l.1-.15h0Z"/></g><g><path class="d" d="M81.19,185.83c-8.94-3.88-20.48-1.54-26.15,10.69-10.28-8.72-21.79-5.98-28.21,1.27-6.47,7.3-7.74,19.02,2.16,28.16-11.5,7.16-12.42,18.9-7.49,27.3,4.88,8.35,15.67,13.22,27.45,6.58,3.19,13.13,14.05,17.69,23.57,15.62,9.47-2.12,17.44-10.81,14.79-24.12,13.49,1.07,21.15-7.9,22.1-17.55,.9-9.7-4.94-19.94-18.32-21.56,5.11-12.44-1.02-22.56-9.91-26.4Z"/><g><circle class="e" cx="62.5" cy="229.63" r="3.67"/><g><rect class="e" x="54.44" y="212.97" width="1.12" height="20.04" transform="translate(-148.42 116.36) rotate(-48.48)"/><circle class="e" cx="47.5" cy="216.35" r="2.28"/></g><g><rect class="e" x="51.97" y="218.65" width="1.12" height="20.04" transform="translate(-180.13 258.96) rotate(-84.48)"/><circle class="e" cx="42.56" cy="227.7" r="2.28"/></g><g><rect class="e" x="53.31" y="224.69" width="1.12" height="20.04" transform="translate(-121.08 400.19) rotate(-120.48)"/><circle class="e" cx="45.23" cy="239.79" r="2.28"/></g><g><rect class="e" x="57.94" y="228.8" width="1.12" height="20.04" transform="translate(16.85 481.14) rotate(-156.48)"/><circle class="e" cx="54.51" cy="248" r="2.28"/></g><g><rect class="e" x="64.11" y="229.39" width="1.12" height="20.04" transform="translate(179.55 459.19) rotate(167.52)"/><circle class="e" cx="66.83" cy="249.2" r="2.28"/></g><g><rect class="e" x="69.44" y="226.25" width="1.12" height="20.04" transform="translate(293.32 340.47) rotate(131.52)"/><circle class="e" cx="77.51" cy="242.91" r="2.28"/></g><g><rect class="e" x="71.92" y="220.57" width="1.12" height="20.04" transform="translate(308.97 180.63) rotate(95.52)"/><circle class="e" cx="82.45" cy="231.56" r="2.28"/></g><g><rect class="e" x="70.58" y="214.53" width="1.12" height="20.04" transform="translate(228.57 49.34) rotate(59.52)"/><circle class="e" cx="79.77" cy="219.46" r="2.28"/></g><g><rect class="e" x="65.94" y="210.42" width="1.12" height="20.04" transform="translate(93.49 -8.23) rotate(23.52)"/><circle class="e" cx="70.5" cy="211.25" r="2.28"/></g><g><rect class="e" x="59.78" y="209.83" width="1.12" height="20.04" transform="translate(-46.09 18.24) rotate(-12.48)"/><circle class="e" cx="58.17" cy="210.06" r="2.28"/></g></g></g><g><path class="g" d="M126.65,64.68c-6.99-2.23-15.46,.41-18.78,10-8.36-5.75-16.79-2.82-21.05,3.1s-4.35,14.84,3.77,20.94c-8.07,6.24-7.87,15.11-3.53,21.03,4.3,5.89,12.75,8.71,21.07,2.84,3.39,9.6,11.88,12.18,18.85,9.91,6.93-2.31,12.25-9.43,9.25-19.2,10.19-.23,15.24-7.53,15.22-14.84-.06-7.34-5.22-14.56-15.37-14.76,2.88-9.71-2.49-16.83-9.44-19.02Z"/><g><circle class="e" cx="115.99" cy="98.92" r="2.77"/><g><rect class="e" x="109.44" y="86.97" width=".85" height="15.09" transform="translate(-31.01 128.55) rotate(-54.29)"/><circle class="e" cx="103.73" cy="90.11" r="1.71"/></g><g><rect class="e" x="108.02" y="91.41" width=".85" height="15.09" transform="translate(10.03 207.9) rotate(-90.29)"/><circle class="e" cx="100.9" cy="99" r="1.71"/></g><g><rect class="e" x="109.48" y="95.84" width=".85" height="15.09" transform="translate(91.62 253.17) rotate(-126.29)"/><circle class="e" cx="103.82" cy="107.86" r="1.71"/></g><g><rect class="e" x="113.27" y="98.57" width=".85" height="15.09" transform="translate(189.72 241.78) rotate(-162.29)"/><circle class="e" cx="111.4" cy="113.3" r="1.71"/></g><g><rect class="e" x="117.94" y="98.54" width=".85" height="15.09" transform="translate(264.03 169.68) rotate(161.71)"/><circle class="e" cx="120.73" cy="113.26" r="1.71"/></g><g><rect class="e" x="121.69" y="95.78" width=".85" height="15.09" transform="translate(277.3 64.48) rotate(125.71)"/><circle class="e" cx="128.25" cy="107.73" r="1.71"/></g><g><rect class="e" x="123.11" y="91.34" width=".85" height="15.09" transform="translate(221.8 -25.15) rotate(89.71)"/><circle class="e" cx="131.08" cy="98.85" r="1.71"/></g><g><rect class="e" x="121.65" y="86.91" width=".85" height="15.09" transform="translate(125.96 -59.84) rotate(53.71)"/><circle class="e" cx="128.16" cy="89.99" r="1.71"/></g><g><rect class="e" x="117.86" y="84.19" width=".85" height="15.09" transform="translate(33.51 -31.64) rotate(17.71)"/><circle class="e" cx="120.58" cy="84.54" r="1.71"/></g><g><rect class="e" x="113.2" y="84.21" width=".85" height="15.09" transform="translate(-23.06 40.29) rotate(-18.29)"/><circle class="e" cx="111.25" cy="84.59" r="1.71"/></g></g></g></g></g></g></g></svg>