<?xml version="1.0" encoding="UTF-8"?><svg xmlns="http://www.w3.org/2000/svg" xmlns:xlink="http://www.w3.org/1999/xlink" viewBox="0 0 1378.54 1417.89"><defs><style>.e{fill:none;}.f{fill:#f79d5c;}.g{fill:#ffece4;}.h{fill:#b32e55;}.i{fill:#10674c;}.j{clip-path:url(#d);}</style><clipPath id="d"><rect class="e" x="166.96" y="150.19" width="1080" height="1080"/></clipPath></defs><g id="a"/><g id="b"><g id="c"><g class="j"><g><rect class="g" x="166.96" y="150.19" width="1080" height="1080"/><path class="i" d="M220.78,926.09c129.5-1.04,170.33,216.15,410.12,181.85,83.01-11.88,197.36-23.69,246.86,50.37,31.31,46.84-8.61,100.95-49.5,153.07-95.22,121.35-725.84,173.49-816.42-33.2-52.19-119.11,77.3-351.03,208.93-352.09Z"/><path class="h" d="M249.82,517.42c57.54-37.54,126.51-161.82,196.55-173.21,110.41-17.95,188.17,36.72,248.38-12.8,48.08-39.55,62.6-127.16,35.54-185.05C654.33-16.19,191.33-71.38,82.38,127.56c-58.14,106.16-20.21,492.17,167.45,389.86Z"/><path class="f" d="M1303.12,238.14c-91.65-46.28-260.77,81.4-209.79,273.28,22.49,84.63,77.64,153.05,95.05,231.7,24.35,110.03-150.19,176.82-98.14,288.19,14.98,32.06,151.39,114.39,234.46-136.38,80.68-243.55,68.41-611.36-21.58-656.8Z"/></g></g></g></g></svg>