<?xml version="1.0" encoding="UTF-8"?><svg xmlns="http://www.w3.org/2000/svg" viewBox="0 0 82.12 82.12"><defs><style>.d{fill:#f79d5c;}.e{fill:#fff;}.f{fill:#ffece4;}</style></defs><g id="a"/><g id="b"><g id="c"><g><circle class="f" cx="41.06" cy="41.06" r="41.06"/><g><path class="d" d="M56.7,36.89c-1.05-3.22-4.31-5.68-8.8-4.34-.1-4.68-3.46-7.04-6.82-7.04s-6.73,2.36-6.82,7.04c-4.51-1.34-7.78,1.12-8.82,4.34-1.05,3.19,.17,7.12,4.61,8.65-2.68,3.85-1.36,7.73,1.36,9.73,2.73,1.97,6.82,2.05,9.68-1.71,2.83,3.75,6.92,3.68,9.65,1.71,2.73-2,4.05-5.87,1.39-9.73,4.41-1.54,5.63-5.46,4.58-8.65Z"/><g><circle class="e" cx="41.01" cy="42.12" r="1.28"/><g><rect class="e" x="40.81" y="35.16" width=".39" height="6.96"/><circle class="e" cx="41.01" cy="35.16" r=".79"/></g><g><rect class="e" x="38.77" y="35.82" width=".39" height="6.96" transform="translate(-15.66 30.41) rotate(-36)"/><circle class="e" cx="36.92" cy="36.49" r=".79"/></g><g><rect class="e" x="37.5" y="37.56" width=".39" height="6.96" transform="translate(-12.98 64.21) rotate(-72)"/><circle class="e" cx="34.39" cy="39.97" r=".79"/></g><g><rect class="e" x="37.5" y="39.71" width=".39" height="6.96" transform="translate(8.27 92.39) rotate(-108)"/><circle class="e" cx="34.39" cy="44.27" r=".79"/></g><g><rect class="e" x="38.77" y="41.45" width=".39" height="6.96" transform="translate(44.07 104.19) rotate(-144)"/><circle class="e" cx="36.92" cy="47.75" r=".79"/></g><g><rect class="e" x="40.81" y="42.12" width=".39" height="6.96" transform="translate(82.02 91.19) rotate(-180)"/><circle class="e" cx="41.01" cy="49.08" r=".79"/></g><g><rect class="e" x="42.86" y="41.45" width=".39" height="6.96" transform="translate(104.3 55.98) rotate(144)"/><circle class="e" cx="45.1" cy="47.75" r=".79"/></g><g><rect class="e" x="44.12" y="39.71" width=".39" height="6.96" transform="translate(99.09 14.39) rotate(108)"/><circle class="e" cx="47.63" cy="44.27" r=".79"/></g><g><rect class="e" x="44.12" y="37.56" width=".39" height="6.96" transform="translate(69.66 -13.79) rotate(72)"/><circle class="e" cx="47.63" cy="39.97" r=".79"/></g><g><rect class="e" x="42.86" y="35.82" width=".39" height="6.96" transform="translate(31.32 -17.8) rotate(36)"/><circle class="e" cx="45.1" cy="36.49" r=".79"/></g></g></g></g></g></g></svg>