<svg xmlns="http://www.w3.org/2000/svg" xmlns:xlink="http://www.w3.org/1999/xlink" width="26" height="26"><defs><linearGradient id="b" x1="868.253" x2="937.656" y1="521.354" y2="588.736" gradientTransform="matrix(.833 0 0 .833 -718.774 596.81)" gradientUnits="userSpaceOnUse" xlink:href="#a"/><linearGradient id="a"><stop offset="0" stop-color="#24f3d2"/><stop offset=".394" stop-color="#0674f0"/><stop offset=".507" stop-color="#6961b5"/><stop offset=".813" stop-color="#f34660"/><stop offset="1" stop-color="#ee078d"/></linearGradient></defs><g transform="translate(0 -1026.362)"><rect width="26" height="26" y="1026.362" fill="url(#b)" rx="5.495" ry="5.495"/><path fill="#fff" d="M10.494 1032.36a.5.5 0 0 0-.111.02H5.586a.5.5 0 0 0-.102-.01.5.5 0 0 0-.482.516c.141 7.895 6.494 14.271 14.375 14.461a.5.5 0 0 0 .615-.4.5.5 0 0 0 .006-.05.5.5 0 0 0 .002-.04.5.5 0 0 0 0-.01v-4.975a.5.5 0 0 0-.508-.506.5.5 0 0 0-.056 0 5.09 5.09 0 0 1-3.065-.865.5.5 0 0 0-.057-.033.5.5 0 0 0-.3-.088.5.5 0 0 0-.43.275l-.022.041-.728 1.414a10.669 10.669 0 0 1-4.557-4.572l1.463-.75a.5.5 0 0 0 .178-.744.5.5 0 0 0-.027-.041 5.092 5.092 0 0 1-.868-3.104.5.5 0 0 0-.529-.544zm-4.459 1.02h4.008c.036.972.301 1.915.78 2.762l-1.347.687a.5.5 0 0 0-.377.477.5.5 0 0 0 .098.32 11.677 11.677 0 0 0 5.504 5.545.5.5 0 0 0 .793-.154l.744-1.442c.847.478 1.79.745 2.762.782v3.968a13.706 13.706 0 0 1-12.965-12.945z" color="#000" font-family="sans-serif" font-weight="400" overflow="visible" style="line-height:normal;text-indent:0;text-align:start;text-decoration-line:none;text-decoration-style:solid;text-decoration-color:#000;text-transform:none;block-progression:tb;isolation:auto;mix-blend-mode:normal"/></g></svg>